#Comment line ignore any data following # character 
#Hierarchical Translation and Rotation (.htr) file 
[Header]	
#Header keywords are followed by a single value 
FileType HTR		#Single word string
DataType HTRS		#Translation followed by rotation and scale data
FileVersion 1		#integer
NumSegments 64		#integer
NumFrames 3		#integer
DataFrameRate 30		#integer, data frame rate in this file
EulerRotationOrder ZYX
CalibrationUnits mm
RotationUnits Degrees
GlobalAxisofGravity Y
BoneLengthAxis Y
ScaleFactor 1.00
[SegmentNames&Hierarchy]
#CHILD	PARENT
Pinger_Root GLOBAL
Pelvis Pinger_Root
L_Hip Pelvis
R_Hip Pelvis
Rear_Leg01 Pelvis
Spine1 Pelvis
L_Leg01 L_Hip
L_Leg02 L_Leg01
L_Leg03 L_Leg02
L_Foot L_Leg03
L_Toe1_01 L_Foot
L_Toe2_01 L_Foot
L_Toe3_01 L_Foot
planeAlignerLeft L_Foot
L_Toe1_02 L_Toe1_01
L_Toe1_03 L_Toe1_02
L_Toe2_02 L_Toe2_01
L_Toe2_03 L_Toe2_02
L_Toe3_02 L_Toe3_01
L_Toe3_03 L_Toe3_02
planeLockWeightLeft planeAlignerLeft
R_Leg01 R_Hip
R_Leg02 R_Leg01
R_Leg03 R_Leg02
R_Foot R_Leg03
planeAlignerRight R_Foot
R_Toe1_01 R_Foot
R_Toe2_01 R_Foot
R_Toe3_01 R_Foot
planeLockWeightRight planeAlignerRight
R_Toe1_02 R_Toe1_01
R_Toe1_03 R_Toe1_02
R_Toe2_02 R_Toe2_01
R_Toe2_03 R_Toe2_02
R_Toe3_02 R_Toe3_01
R_Toe3_03 R_Toe3_02
Rear_Leg02 Rear_Leg01
Rear_Leg03 Rear_Leg02
Rear_Leg04 Rear_Leg03
Rear_Foot Rear_Leg04
planeAlignerCenter Rear_Foot
Rear_Toe1_01 Rear_Foot
Rear_Toe2_01 Rear_Foot
Rear_Toe3_01 Rear_Foot
planeLockWeightCenter planeAlignerCenter
Rear_Toe1_02 Rear_Toe1_01
Rear_Toe1_03 Rear_Toe1_02
Rear_Toe2_02 Rear_Toe2_01
Rear_Toe2_03 Rear_Toe2_02
Rear_Toe3_02 Rear_Toe3_01
Rear_Toe3_03 Rear_Toe3_02
Back_Bone Spine1
Head Spine1
Motor_Bone Back_Bone
Ping_Mechanism Back_Bone
BN_LookIK Head
bottomMouth Head
L_Mouth01 Head
L_mouthFront Head
mouthGun Head
R_Mouth01 Head
R_mouthFront Head
TopMouth Head
weapon_bone Head
[BasePosition]
#SegmentName Tx, Ty, Tz, Rx, Ry, Rz, BoneLength
Pinger_Root 0.000000 0.000000 0.000000 -90.000000 0.000000 0.000000 10.000000 
Pelvis 0.000000 0.000000 0.000000 0.000000 0.000000 0.000000 10.000000 
L_Hip 0.000000 0.000000 0.000000 0.000000 0.000000 0.000000 10.000000 
R_Hip 0.000000 0.000000 0.000000 0.000000 0.000000 0.000000 10.000000 
Rear_Leg01 0.000000 0.000000 0.000000 0.000000 0.000000 0.000000 10.000000 
Spine1 0.000000 0.000000 0.000000 0.000000 0.000000 0.000000 10.000000 
L_Leg01 0.000000 0.000000 0.000000 0.000000 0.000000 0.000000 10.000000 
L_Leg02 0.000000 0.000000 0.000000 0.000000 0.000000 0.000000 10.000000 
L_Leg03 0.000000 0.000000 0.000000 0.000000 0.000000 0.000000 10.000000 
L_Foot 0.000000 0.000000 0.000000 0.000000 0.000000 0.000000 10.000000 
L_Toe1_01 0.000000 0.000000 0.000000 0.000000 0.000000 0.000000 10.000000 
L_Toe2_01 0.000000 0.000000 0.000000 0.000000 0.000000 0.000000 10.000000 
L_Toe3_01 0.000000 0.000000 0.000000 0.000000 0.000000 0.000000 10.000000 
planeAlignerLeft 0.000000 0.000000 0.000000 0.000000 0.000000 0.000000 10.000000 
L_Toe1_02 0.000000 0.000000 0.000000 0.000000 0.000000 0.000000 10.000000 
L_Toe1_03 0.000000 0.000000 0.000000 0.000000 0.000000 0.000000 10.000000 
L_Toe2_02 0.000000 0.000000 0.000000 0.000000 0.000000 0.000000 10.000000 
L_Toe2_03 0.000000 0.000000 0.000000 0.000000 0.000000 0.000000 10.000000 
L_Toe3_02 0.000000 0.000000 0.000000 0.000000 0.000000 0.000000 10.000000 
L_Toe3_03 0.000000 0.000000 0.000000 0.000000 0.000000 0.000000 10.000000 
planeLockWeightLeft 0.000000 0.000000 0.000000 0.000000 0.000000 0.000000 10.000000 
R_Leg01 0.000000 0.000000 0.000000 0.000000 0.000000 0.000000 10.000000 
R_Leg02 0.000000 0.000000 0.000000 0.000000 0.000000 0.000000 10.000000 
R_Leg03 0.000000 0.000000 0.000000 0.000000 0.000000 0.000000 10.000000 
R_Foot 0.000000 0.000000 0.000000 0.000000 0.000000 0.000000 10.000000 
planeAlignerRight 0.000000 0.000000 0.000000 0.000000 0.000000 0.000000 10.000000 
R_Toe1_01 0.000000 0.000000 0.000000 0.000000 0.000000 0.000000 10.000000 
R_Toe2_01 0.000000 0.000000 0.000000 0.000000 0.000000 0.000000 10.000000 
R_Toe3_01 0.000000 0.000000 0.000000 0.000000 0.000000 0.000000 10.000000 
planeLockWeightRight 0.000000 0.000000 0.000000 0.000000 0.000000 0.000000 10.000000 
R_Toe1_02 0.000000 0.000000 0.000000 0.000000 0.000000 0.000000 10.000000 
R_Toe1_03 0.000000 0.000000 0.000000 0.000000 0.000000 0.000000 10.000000 
R_Toe2_02 0.000000 0.000000 0.000000 0.000000 0.000000 0.000000 10.000000 
R_Toe2_03 0.000000 0.000000 0.000000 0.000000 0.000000 0.000000 10.000000 
R_Toe3_02 0.000000 0.000000 0.000000 0.000000 0.000000 0.000000 10.000000 
R_Toe3_03 0.000000 0.000000 0.000000 0.000000 0.000000 0.000000 10.000000 
Rear_Leg02 0.000000 0.000000 0.000000 0.000000 0.000000 0.000000 10.000000 
Rear_Leg03 0.000000 0.000000 0.000000 0.000000 0.000000 0.000000 10.000000 
Rear_Leg04 0.000000 0.000000 0.000000 0.000000 0.000000 0.000000 10.000000 
Rear_Foot 0.000000 0.000000 0.000000 0.000000 0.000000 0.000000 10.000000 
planeAlignerCenter 0.000000 0.000000 0.000000 0.000000 0.000000 0.000000 10.000000 
Rear_Toe1_01 0.000000 0.000000 0.000000 0.000000 0.000000 0.000000 10.000000 
Rear_Toe2_01 0.000000 0.000000 0.000000 0.000000 0.000000 0.000000 10.000000 
Rear_Toe3_01 0.000000 0.000000 0.000000 0.000000 0.000000 0.000000 10.000000 
planeLockWeightCenter 0.000000 0.000000 0.000000 0.000000 0.000000 0.000000 10.000000 
Rear_Toe1_02 0.000000 0.000000 0.000000 0.000000 0.000000 0.000000 10.000000 
Rear_Toe1_03 0.000000 0.000000 0.000000 0.000000 0.000000 0.000000 10.000000 
Rear_Toe2_02 0.000000 0.000000 0.000000 0.000000 0.000000 0.000000 10.000000 
Rear_Toe2_03 0.000000 0.000000 0.000000 0.000000 0.000000 0.000000 10.000000 
Rear_Toe3_02 0.000000 0.000000 0.000000 0.000000 0.000000 0.000000 10.000000 
Rear_Toe3_03 0.000000 0.000000 0.000000 0.000000 0.000000 0.000000 10.000000 
Back_Bone 0.000000 0.000000 0.000000 0.000000 0.000000 0.000000 10.000000 
Head 0.000000 0.000000 0.000000 0.000000 0.000000 0.000000 10.000000 
Motor_Bone 0.000000 0.000000 0.000000 0.000000 0.000000 0.000000 10.000000 
Ping_Mechanism 0.000000 0.000000 0.000000 0.000000 0.000000 0.000000 10.000000 
BN_LookIK 0.000000 0.000000 0.000000 0.000000 0.000000 0.000000 10.000000 
bottomMouth 0.000000 0.000000 0.000000 0.000000 0.000000 0.000000 10.000000 
L_Mouth01 0.000000 0.000000 0.000000 0.000000 0.000000 0.000000 10.000000 
L_mouthFront 0.000000 0.000000 0.000000 0.000000 0.000000 0.000000 10.000000 
mouthGun 0.000000 0.000000 0.000000 0.000000 0.000000 0.000000 10.000000 
R_Mouth01 0.000000 0.000000 0.000000 0.000000 0.000000 0.000000 10.000000 
R_mouthFront 0.000000 0.000000 0.000000 0.000000 0.000000 0.000000 10.000000 
TopMouth 0.000000 0.000000 0.000000 0.000000 0.000000 0.000000 10.000000 
weapon_bone 0.000000 0.000000 0.000000 0.000000 0.000000 0.000000 10.000000 
#Beginning of Data. Separated by tabs
#Fr	Tx	Ty	Tz	Rx	Ry	Rz	SF
[Pinger_Root]
45 5703.701660 0.000000 0.000000 -0.000075 -0.000000 -0.000020 5703.701660
46 5833.331543 0.000000 0.000000 -0.000075 -0.000000 -0.000020 5833.331543
47 5962.961426 0.000000 0.000000 -0.000075 -0.000000 -0.000020 5962.961426
[Pelvis]
45 475.102020 -527.144348 4977.244141 -112.660866 -70.303612 71.916924 5027.580566
46 502.371368 -543.281250 4961.093262 -117.404236 -69.610031 74.404198 5015.972168
47 529.050903 -552.277710 4959.395508 -120.361633 -69.140930 75.075432 5018.018555
[L_Hip]
45 5.766392 125.831482 872.656799 -178.250168 -81.786369 87.376007 881.701050
46 5.766392 125.831482 872.656799 -178.250168 -81.786369 87.376007 881.701050
47 5.766392 125.831482 872.656799 -178.250168 -81.786369 87.376007 881.701050
[R_Hip]
45 5.765438 125.836372 -872.654907 -1.748770 81.786041 87.376961 881.699829
46 5.765438 125.836372 -872.654907 -1.748770 81.786041 87.376961 881.699829
47 5.765438 125.836372 -872.654907 -1.748770 81.786041 87.376961 881.699829
[Rear_Leg01]
45 -192.298416 -925.602966 -0.001907 167.875336 -46.742371 -179.337204 945.367432
46 -192.298416 -925.602966 -0.001907 169.628021 -48.453442 -174.883820 945.367432
47 -192.298416 -925.602966 -0.001907 170.331741 -49.261662 -167.271347 945.367432
[Spine1]
45 290.604584 5.007505 0.000477 27.983852 -6.846276 7.421893 290.647736
46 290.604584 5.007505 0.000477 30.827291 -5.863224 6.393001 290.647736
47 290.604584 5.007505 0.000477 33.541569 -5.570389 5.597075 290.647736
[L_Leg01]
45 761.932007 -0.002384 -0.069261 17.592396 -72.971725 -34.679611 761.932068
46 761.932007 -0.002384 -0.069261 21.099628 -69.250046 -35.530628 761.932068
47 761.932007 -0.002384 -0.069261 30.868158 -63.911705 -43.426338 761.932068
[L_Leg02]
45 1441.140503 -0.000954 -0.000715 -1.285173 0.814946 -94.520882 1441.140503
46 1441.140503 -0.000954 -0.000715 -1.373391 0.733595 -96.092995 1441.140503
47 1441.140503 -0.000954 -0.000715 -1.457747 0.647365 -91.719231 1441.140503
[L_Leg03]
45 1686.963989 -0.000715 -0.000954 0.097547 -0.012421 84.030434 1686.963989
46 1686.963989 -0.000715 -0.000954 0.072295 -0.013963 89.962654 1686.963989
47 1686.963989 -0.000715 -0.000954 0.061354 -0.012845 94.381836 1686.963989
[L_Foot]
45 3041.570068 -30.715107 11.297464 18.033527 5.358858 41.684261 3041.746094
46 3041.570068 -30.715107 11.297464 15.667807 5.560214 39.569813 3041.746094
47 3041.570068 -30.715107 11.297464 12.776774 6.121828 36.413174 3041.746094
[L_Toe1_01]
45 -188.216690 -224.732346 -21.137953 89.226913 -2.122470 -157.877899 293.899567
46 -188.216690 -224.732346 -21.137953 89.200928 -1.857706 -158.919846 293.899567
47 -188.216690 -224.732346 -21.137953 89.163811 -1.285969 -160.420700 293.899567
[L_Toe2_01]
45 200.746536 -219.926590 148.838394 -76.712189 -8.894067 -53.170017 332.896027
46 200.746536 -219.926590 148.838394 -76.731422 -9.397520 -52.413525 332.896027
47 200.746536 -219.926590 148.838394 -77.114479 -11.019379 -48.934532 332.896027
[L_Toe3_01]
45 188.832520 -219.859131 -191.078659 -107.223343 10.826044 -55.312607 347.140900
46 188.832520 -219.859131 -191.078659 -107.336510 11.965747 -54.410637 347.140900
47 188.832520 -219.859131 -191.078659 -107.215858 15.121464 -51.211212 347.140900
[planeAlignerLeft]
45 113.329765 -749.299988 -0.005493 0.000000 -90.000000 -90.001900 757.821899
46 75.846825 -725.902100 -3.935487 0.000000 -90.000000 -90.001900 729.864441
47 -6.617397 -674.422485 -12.575551 0.000000 -90.000000 -90.001900 674.572205
[L_Toe1_02]
45 413.761139 0.000477 0.000000 0.001424 -20.961100 0.001424 413.761139
46 413.761139 0.000477 0.000000 0.001418 -21.675711 0.001418 413.761139
47 413.761139 0.000477 0.000000 0.001405 -23.337227 0.001405 413.761139
[L_Toe1_03]
45 464.317322 0.000358 -0.000089 0.043951 86.939568 0.043951 464.317322
46 464.317322 0.000358 -0.000089 0.023239 84.210228 0.023239 464.317322
47 464.317322 0.000358 -0.000089 0.010266 76.871689 0.010266 464.317322
[L_Toe2_02]
45 342.235809 -0.000477 0.000238 -0.008632 -64.891136 0.007454 342.235809
46 342.235809 -0.000477 0.000238 0.001192 -69.613335 0.001193 342.235809
47 342.235809 -0.000477 0.000238 0.001182 -76.375603 0.001182 342.235809
[L_Toe2_03]
45 420.210846 -0.000715 0.000000 -0.001414 69.250450 -0.004969 420.210846
46 420.210846 -0.000715 0.000000 0.011942 78.720680 0.011942 420.210846
47 420.210846 -0.000715 0.000000 -179.992935 82.528450 -179.989441 420.210846
[L_Toe3_02]
45 329.270111 0.000954 0.000000 -0.010873 -70.434631 0.009707 329.270111
46 329.270111 0.000954 0.000000 0.001185 -74.164803 0.001185 329.270111
47 329.270111 0.000954 0.000000 0.001178 -79.782288 0.001178 329.270111
[L_Toe3_03]
45 439.137451 -0.001907 0.000954 -0.002458 74.355110 -0.005988 439.137451
46 439.137451 -0.001907 0.000954 0.017870 82.468941 0.017870 439.137451
47 439.137451 -0.001907 0.000954 -179.994141 81.329910 -179.990646 439.137451
[planeLockWeightLeft]
45 1000.000000 0.097989 0.076371 -0.011826 -0.004376 0.005620 1000.000000
46 1000.000000 0.098017 0.076362 -0.011826 -0.004376 0.005620 1000.000000
47 1000.000000 0.098045 0.076354 -0.011826 -0.004376 0.005620 1000.000000
[R_Leg01]
45 761.455627 -0.001907 -0.000358 126.102066 -23.418268 78.605362 761.455688
46 761.455627 -0.001907 -0.000358 122.543907 -23.478760 83.320641 761.455688
47 761.455627 -0.001907 -0.000358 118.281120 -23.461510 87.427299 761.455688
[R_Leg02]
45 1441.140625 0.000000 -0.000238 0.177925 -0.052969 -107.407806 1441.140625
46 1441.140625 0.000000 -0.000238 0.181389 -0.050588 -105.147034 1441.140625
47 1441.140625 0.000000 -0.000238 0.184943 -0.048346 -102.886185 1441.140625
[R_Leg03]
45 1686.963989 0.000954 0.001431 -0.031783 0.010156 101.227959 1686.963989
46 1686.963989 0.000954 0.001431 -0.038823 0.010549 100.367851 1686.963989
47 1686.963989 0.000954 0.001431 -0.038941 0.010108 99.067474 1686.963989
[R_Foot]
45 3041.560059 -30.531288 -11.204481 10.485085 -5.422041 82.128342 3041.734131
46 3041.560059 -30.531288 -11.204481 8.910175 -5.788997 82.941940 3041.734131
47 3041.560059 -30.531288 -11.204481 7.226071 -6.819329 83.834198 3041.734131
[planeAlignerRight]
45 -0.537093 -812.112244 0.008246 0.000000 -89.960434 -90.005180 812.112427
46 -0.538940 -807.677856 0.010376 0.000000 -89.960434 -90.005180 807.678040
47 -0.538330 -795.801453 0.011291 0.000000 -89.960434 -90.005180 795.801636
[R_Toe1_01]
45 -188.383347 -224.864899 21.052242 91.072014 1.816004 -149.193024 294.101532
46 -188.383347 -224.864899 21.052242 91.062538 1.820512 -149.577515 294.101532
47 -188.383347 -224.864899 21.052242 91.021873 1.840007 -150.616974 294.101532
[R_Toe2_01]
45 200.637817 -220.002121 -148.787384 -104.741966 9.279012 -58.577404 332.857574
46 200.637817 -220.002121 -148.787384 -104.705231 9.355671 -58.294968 332.857574
47 200.637817 -220.002121 -148.787384 -104.555466 9.593440 -57.377026 332.857574
[R_Toe3_01]
45 188.606735 -220.092957 191.126343 -70.885887 -11.285350 -60.515266 347.192566
46 188.606735 -220.092957 191.126343 -70.956413 -11.385157 -60.242100 347.192566
47 188.606735 -220.092957 191.126343 -71.143463 -11.699906 -59.307114 347.192566
[planeLockWeightRight]
45 999.999329 0.000189 0.076173 -0.011823 -0.004379 -0.000027 999.999329
46 999.999329 0.000232 0.076182 -0.011823 -0.004379 -0.000027 999.999329
47 999.999329 0.000274 0.076192 -0.011823 -0.004379 -0.000027 999.999329
[R_Toe1_02]
45 413.762085 0.000477 -0.000119 0.001388 -25.434608 0.001388 413.762085
46 413.762085 0.000477 -0.000119 0.001390 -25.224380 0.001390 413.762085
47 413.762085 0.000477 -0.000119 0.001391 -25.014151 0.001391 413.762085
[R_Toe1_03]
45 464.317810 0.000000 0.001088 0.005169 63.755848 0.005169 464.317810
46 464.317810 0.000000 0.001088 0.005279 64.309937 0.005279 464.317810
47 464.317810 0.000000 0.001088 0.005591 65.764526 0.005591 464.317810
[R_Toe2_02]
45 342.234741 -0.000954 0.000238 0.001191 -70.126205 0.001191 342.234741
46 342.234741 -0.000954 0.000238 0.001191 -70.368065 0.001191 342.234741
47 342.234741 -0.000954 0.000238 0.001190 -71.187180 0.001190 342.234741
[R_Toe2_03]
45 420.210846 0.000715 -0.000268 0.013252 79.838326 0.013252 420.210846
46 420.210846 0.000715 -0.000268 0.014073 80.432831 0.014073 420.210846
47 420.210846 0.000715 -0.000268 0.016789 81.983200 0.016789 420.210846
[R_Toe3_02]
45 329.270355 -0.000477 -0.000954 0.001184 -74.661621 0.001184 329.270355
46 329.270355 -0.000477 -0.000954 0.001184 -75.041992 0.001184 329.270355
47 329.270355 -0.000477 -0.000954 0.001183 -75.422340 0.001183 329.270355
[R_Toe3_03]
45 439.137939 0.000238 0.001431 -0.012109 83.638290 -0.008607 439.137939
46 439.137939 0.000238 0.001431 -0.013079 84.183586 -0.009577 439.137939
47 439.137939 0.000238 0.001431 -0.016760 85.611221 -0.013261 439.137939
[Rear_Leg02]
45 1162.777710 -0.029802 0.005960 -4.317147 -3.746021 -40.332977 1162.777710
46 1162.777710 -0.029802 0.005960 -7.014046 -9.913479 -51.376358 1162.777710
47 1162.777710 -0.029802 0.005960 -9.984200 -20.323238 -54.657372 1162.777710
[Rear_Leg03]
45 607.192505 -0.013351 -0.073195 0.003599 0.005781 35.601982 607.192505
46 607.192505 -0.013351 -0.073195 0.003993 0.005517 43.577194 607.192505
47 607.192505 -0.013351 -0.073195 0.008741 0.003293 48.716862 607.192505
[Rear_Leg04]
45 995.874512 -0.020504 -0.011921 -0.024477 -0.010319 13.754055 995.874573
46 995.874512 -0.020504 -0.011921 -0.031187 -0.011861 24.141548 995.874573
47 995.874512 -0.020504 -0.011921 -0.033238 -0.014569 31.587566 995.874573
[Rear_Foot]
45 3096.176270 -0.067472 -0.041425 -171.682068 47.908604 11.816997 3096.176270
46 3096.176270 -0.067472 -0.041425 -162.997940 44.760715 8.951272 3096.176270
47 3096.176270 -0.067472 -0.041425 -149.621613 40.747620 9.487837 3096.176270
[planeAlignerCenter]
45 0.481415 117.402023 -813.515503 0.000009 0.000003 -179.999985 821.943359
46 -2.965188 125.059692 -804.935120 0.000009 0.000003 -179.999985 814.597534
47 -6.756916 130.305252 -787.617554 0.000009 0.000003 -179.999985 798.352417
[Rear_Toe1_01]
45 0.653352 83.966492 -371.173737 0.063113 30.866852 90.035805 380.553192
46 0.653352 83.966492 -371.173737 -0.120527 36.925156 89.686790 380.553192
47 0.653352 83.966492 -371.173737 -0.826174 50.845600 88.777794 380.553192
[Rear_Toe2_01]
45 178.200760 -294.826019 -362.060547 2.086775 54.525616 -68.338936 499.765686
46 178.200760 -294.826019 -362.060547 1.988077 53.865303 -68.453232 499.765686
47 178.200760 -294.826019 -362.060547 1.783964 52.401272 -68.694954 499.765686
[Rear_Toe3_01]
45 -153.359680 -308.780914 -362.060852 -2.511729 54.498589 -114.363701 499.952881
46 -153.359680 -308.780914 -362.060852 -2.416906 53.850224 -114.238029 499.952881
47 -153.359680 -308.780914 -362.060852 -2.171101 52.391968 -113.957184 499.952881
[planeLockWeightCenter]
45 1000.000000 0.000153 0.076580 -0.011814 -0.004373 -0.000015 1000.000000
46 843.752502 0.000305 0.076408 -0.011814 -0.004373 -0.000015 843.752502
47 500.005310 0.000229 0.076389 -0.011814 -0.004373 -0.000015 500.005310
[Rear_Toe1_02]
45 379.707825 0.194073 0.000477 -0.000767 -33.624729 0.000838 379.707855
46 379.707825 0.194073 0.000477 -0.000767 -33.624729 0.000838 379.707855
47 379.707825 0.194073 0.000477 -0.000767 -33.624729 0.000838 379.707855
[Rear_Toe1_03]
45 500.129700 0.165701 0.000119 -0.000024 52.668274 0.007358 500.129761
46 500.129700 0.165701 0.000119 -0.003869 57.403061 -0.000226 500.129761
47 500.129700 0.165701 0.000119 -0.001754 54.999870 0.003746 500.129761
[Rear_Toe2_02]
45 340.494507 0.000238 -0.000954 0.001175 -83.600700 0.001175 340.494507
46 340.494507 0.000238 -0.000954 0.001175 -83.981674 0.001175 340.494507
47 340.494507 0.000238 -0.000954 0.001175 -84.362671 0.001175 340.494507
[Rear_Toe2_03]
45 433.103577 0.000000 0.000238 179.975037 84.610817 179.975037 433.103546
46 433.103577 0.000000 0.000238 179.977570 84.003838 179.977570 433.103546
47 433.103577 0.000000 0.000238 179.981354 82.784195 179.981354 433.103546
[Rear_Toe3_02]
45 340.494141 -0.000358 -0.000477 0.001176 -83.448090 0.001176 340.494171
46 340.494141 -0.000358 -0.000477 0.001175 -83.832703 0.001175 340.494171
47 340.494141 -0.000358 -0.000477 0.001175 -84.217384 0.001175 340.494171
[Rear_Toe3_03]
45 433.103577 0.001431 -0.000238 -179.988693 84.952362 -179.985199 433.103546
46 433.103577 0.001431 -0.000238 -179.990097 84.350380 -179.986588 433.103546
47 433.103577 0.001431 -0.000238 -179.992172 83.121056 -179.988663 433.103546
[Back_Bone]
45 1312.175781 -701.934692 0.000954 0.092866 3.184185 -80.995880 1488.125488
46 1312.175781 -701.934692 0.000954 -0.222050 3.190005 -82.812607 1488.125488
47 1312.175781 -701.934692 0.000954 -0.536994 3.185853 -84.629364 1488.125488
[Head]
45 1406.159424 809.709290 0.001431 10.165407 -4.188442 4.473100 1622.625488
46 1406.159424 809.709290 0.001431 9.818405 -4.023948 4.521705 1622.625488
47 1406.159424 809.709290 0.001431 9.471614 -3.859163 4.569299 1622.625488
[Motor_Bone]
45 1158.364380 -417.834747 0.000477 -2.064749 -0.819210 -106.806320 1231.419434
46 1158.364380 -417.834747 0.000477 -1.940205 -0.666372 -106.653244 1231.419434
47 1158.364380 -417.834747 0.000477 -1.815256 -0.513867 -106.499825 1231.419434
[Ping_Mechanism]
45 1302.328979 -479.014282 15.510858 0.000103 -0.000053 82.120995 1387.716064
46 1306.976929 -476.399261 13.723782 0.000103 -0.000053 82.120995 1391.162598
47 1311.624878 -473.784210 11.936672 0.000103 -0.000053 82.120995 1394.623169
[BN_LookIK]
45 193.241119 1380.371704 -0.002861 0.000000 89.965736 -31.038179 1393.832153
46 193.241119 1380.371704 -0.002861 0.000000 89.965736 -31.038179 1393.832153
47 193.241119 1380.371704 -0.002861 0.000000 89.965736 -31.038179 1393.832153
[bottomMouth]
45 -435.092926 615.759399 -0.000954 -0.000022 0.000016 73.527184 753.966492
46 -435.092926 615.759399 -0.000954 -0.000022 0.000016 73.527184 753.966492
47 -435.092926 615.759399 -0.000954 -0.000022 0.000016 73.527184 753.966492
[L_Mouth01]
45 554.440979 7.658243 838.222046 150.204178 23.759130 109.605339 1005.027161
46 554.440979 7.658243 838.222046 150.204178 23.759130 109.605339 1005.027161
47 554.440979 7.658243 838.222046 150.204178 23.759130 109.605339 1005.027161
[L_mouthFront]
45 551.629089 934.514771 339.150421 0.000081 2.804060 79.119301 1136.941284
46 551.629089 934.514771 339.150421 0.000081 2.804060 79.119301 1136.941284
47 551.629089 934.514771 339.150421 0.000081 2.804060 79.119301 1136.941284
[mouthGun]
45 55.332661 1627.420898 0.000000 0.000023 0.000009 -11.038128 1628.361328
46 55.332661 1627.420898 0.000000 0.000023 0.000009 -11.038128 1628.361328
47 55.332661 1627.420898 0.000000 0.000023 0.000009 -11.038128 1628.361328
[R_Mouth01]
45 554.442383 7.659197 -838.223938 29.795891 -23.759109 109.605331 1005.029541
46 554.442383 7.659197 -838.223938 29.795891 -23.759109 109.605331 1005.029541
47 554.442383 7.659197 -838.223938 29.795891 -23.759109 109.605331 1005.029541
[R_mouthFront]
45 551.629089 934.514282 -339.151367 0.000029 -2.803930 79.119133 1136.941162
46 551.629089 934.514282 -339.151367 0.000029 -2.803930 79.119133 1136.941162
47 551.629089 934.514282 -339.151367 0.000029 -2.803930 79.119133 1136.941162
[TopMouth]
45 461.269867 -56.106091 -0.008583 -0.000059 -0.000268 92.025169 464.669525
46 461.269867 -56.106091 -0.008583 -0.000059 -0.000268 92.025169 464.669525
47 461.269867 -56.106091 -0.008583 -0.000059 -0.000268 92.025169 464.669525
[weapon_bone]
45 -987.239868 1448.372803 0.001431 0.000000 89.965736 -31.038221 1752.833740
46 -987.239868 1448.372803 0.001431 0.000000 89.965736 -31.038221 1752.833740
47 -987.239868 1448.372803 0.001431 0.000000 89.965736 -31.038221 1752.833740
